# xmcd
#
# Track frame offsets: 
#        150
#        38583
#        69832
#        85853
#        88981
#        187257
#        217603
#        265211
#
# Disc length: 4191 seconds
#
# Revision: 1
# Processed by: cddbd v1.5.2PL0 Copyright (c) Steve Scherf et al.
# Submitted via: ExactAudioCopy v1.0b1
#
DISCID=65105d08
DTITLE=Albert Ayler - Holy Ghost CD1
DYEAR=2004
DGENRE=Jazz
TTITLE0=Sonnymoon for Two
TTITLE1=Summertime
TTITLE2=On Green Dolphin Street
TTITLE3=Spoken Introduction
TTITLE4=Four
TTITLE5=Spirits [incomplete]
TTITLE6=Saints
TTITLE7=Ghosts [incomplete]
EXTD=YEAR: 2004
EXTT0=
EXTT1=
EXTT2=
EXTT3=
EXTT4=
EXTT5=
EXTT6=
EXTT7=
PLAYORDER=
